<svg width="159" height="25" viewBox="0 0 159 25" fill="none" xmlns="http://www.w3.org/2000/svg">
<path d="M0.376 12.832C0.376 10.656 0.866667 8.704 1.848 6.976C2.82933 5.22667 4.16267 3.86133 5.848 2.88C7.55467 1.89867 9.44267 1.408 11.512 1.408C13.944 1.408 16.0667 1.99467 17.88 3.168C19.6933 4.34133 21.016 6.00533 21.848 8.16H18.36C17.7413 6.816 16.8453 5.78133 15.672 5.056C14.52 4.33067 13.1333 3.968 11.512 3.968C9.95467 3.968 8.55733 4.33067 7.32 5.056C6.08267 5.78133 5.112 6.816 4.408 8.16C3.704 9.48267 3.352 11.04 3.352 12.832C3.352 14.6027 3.704 16.16 4.408 17.504C5.112 18.8267 6.08267 19.8507 7.32 20.576C8.55733 21.3013 9.95467 21.664 11.512 21.664C13.1333 21.664 14.52 21.312 15.672 20.608C16.8453 19.8827 17.7413 18.848 18.36 17.504H21.848C21.016 19.6373 19.6933 21.2907 17.88 22.464C16.0667 23.616 13.944 24.192 11.512 24.192C9.44267 24.192 7.55467 23.712 5.848 22.752C4.16267 21.7707 2.82933 20.416 1.848 18.688C0.866667 16.96 0.376 15.008 0.376 12.832ZM25.0948 15.168C25.0948 13.376 25.4574 11.808 26.1828 10.464C26.9081 9.09867 27.9001 8.04267 29.1588 7.296C30.4388 6.54933 31.8574 6.176 33.4148 6.176C34.9508 6.176 36.2841 6.50667 37.4148 7.168C38.5454 7.82933 39.3881 8.66133 39.9428 9.664V6.464H42.8868V24H39.9428V20.736C39.3668 21.76 38.5028 22.6133 37.3508 23.296C36.2201 23.9573 34.8974 24.288 33.3828 24.288C31.8254 24.288 30.4174 23.904 29.1588 23.136C27.9001 22.368 26.9081 21.2907 26.1828 19.904C25.4574 18.5173 25.0948 16.9387 25.0948 15.168ZM39.9428 15.2C39.9428 13.8773 39.6761 12.7253 39.1428 11.744C38.6094 10.7627 37.8841 10.016 36.9668 9.504C36.0708 8.97067 35.0788 8.704 33.9908 8.704C32.9028 8.704 31.9108 8.96 31.0148 9.472C30.1188 9.984 29.4041 10.7307 28.8708 11.712C28.3374 12.6933 28.0708 13.8453 28.0708 15.168C28.0708 16.512 28.3374 17.6853 28.8708 18.688C29.4041 19.6693 30.1188 20.4267 31.0148 20.96C31.9108 21.472 32.9028 21.728 33.9908 21.728C35.0788 21.728 36.0708 21.472 36.9668 20.96C37.8841 20.4267 38.6094 19.6693 39.1428 18.688C39.6761 17.6853 39.9428 16.5227 39.9428 15.2ZM50.7198 9.312C51.2318 8.30933 51.9571 7.53067 52.8958 6.976C53.8558 6.42133 55.0184 6.144 56.3838 6.144V9.152H55.6158C52.3518 9.152 50.7198 10.9227 50.7198 14.464V24H47.8078V6.464H50.7198V9.312ZM75.7453 14.56C75.7453 15.1147 75.7133 15.7013 75.6493 16.32H61.6333C61.7399 18.048 62.3266 19.4027 63.3933 20.384C64.4813 21.344 65.7933 21.824 67.3293 21.824C68.5879 21.824 69.6333 21.536 70.4653 20.96C71.3186 20.3627 71.9159 19.5733 72.2573 18.592H75.3933C74.9239 20.2773 73.9853 21.6533 72.5773 22.72C71.1693 23.7653 69.4199 24.288 67.3293 24.288C65.6653 24.288 64.1719 23.9147 62.8493 23.168C61.5479 22.4213 60.5239 21.3653 59.7773 20C59.0306 18.6133 58.6573 17.0133 58.6573 15.2C58.6573 13.3867 59.0199 11.7973 59.7453 10.432C60.4706 9.06667 61.4839 8.02133 62.7853 7.296C64.1079 6.54933 65.6226 6.176 67.3293 6.176C68.9933 6.176 70.4653 6.53867 71.7453 7.264C73.0253 7.98933 74.0066 8.992 74.6893 10.272C75.3933 11.5307 75.7453 12.96 75.7453 14.56ZM72.7373 13.952C72.7373 12.8427 72.4919 11.8933 72.0013 11.104C71.5106 10.2933 70.8386 9.68533 69.9853 9.28C69.1533 8.85333 68.2253 8.64 67.2013 8.64C65.7293 8.64 64.4706 9.10933 63.4253 10.048C62.4013 10.9867 61.8146 12.288 61.6653 13.952H72.7373Z" fill="#9D0101"/>
<path d="M90.757 12.512C91.5677 12.64 92.3037 12.9707 92.965 13.504C93.6477 14.0373 94.181 14.6987 94.565 15.488C94.9703 16.2773 95.173 17.12 95.173 18.016C95.173 19.1467 94.885 20.1707 94.309 21.088C93.733 21.984 92.8903 22.6987 91.781 23.232C90.693 23.744 89.4023 24 87.909 24H79.589V1.696H87.589C89.1037 1.696 90.3943 1.952 91.461 2.464C92.5277 2.95467 93.3277 3.62667 93.861 4.48C94.3943 5.33333 94.661 6.29333 94.661 7.36C94.661 8.68267 94.2983 9.78133 93.573 10.656C92.869 11.5093 91.9303 12.128 90.757 12.512ZM82.501 11.328H87.397C88.7623 11.328 89.8183 11.008 90.565 10.368C91.3117 9.728 91.685 8.84267 91.685 7.712C91.685 6.58133 91.3117 5.696 90.565 5.056C89.8183 4.416 88.741 4.096 87.333 4.096H82.501V11.328ZM87.653 21.6C89.1037 21.6 90.2343 21.2587 91.045 20.576C91.8557 19.8933 92.261 18.944 92.261 17.728C92.261 16.4907 91.8343 15.52 90.981 14.816C90.1277 14.0907 88.9863 13.728 87.557 13.728H82.501V21.6H87.653ZM98.126 15.168C98.126 13.376 98.4887 11.808 99.214 10.464C99.9393 9.09867 100.931 8.04267 102.19 7.296C103.47 6.54933 104.889 6.176 106.446 6.176C107.982 6.176 109.315 6.50667 110.446 7.168C111.577 7.82933 112.419 8.66133 112.974 9.664V6.464H115.918V24H112.974V20.736C112.398 21.76 111.534 22.6133 110.382 23.296C109.251 23.9573 107.929 24.288 106.414 24.288C104.857 24.288 103.449 23.904 102.19 23.136C100.931 22.368 99.9393 21.2907 99.214 19.904C98.4887 18.5173 98.126 16.9387 98.126 15.168ZM112.974 15.2C112.974 13.8773 112.707 12.7253 112.174 11.744C111.641 10.7627 110.915 10.016 109.998 9.504C109.102 8.97067 108.11 8.704 107.022 8.704C105.934 8.704 104.942 8.96 104.046 9.472C103.15 9.984 102.435 10.7307 101.902 11.712C101.369 12.6933 101.102 13.8453 101.102 15.168C101.102 16.512 101.369 17.6853 101.902 18.688C102.435 19.6693 103.15 20.4267 104.046 20.96C104.942 21.472 105.934 21.728 107.022 21.728C108.11 21.728 109.102 21.472 109.998 20.96C110.915 20.4267 111.641 19.6693 112.174 18.688C112.707 17.6853 112.974 16.5227 112.974 15.2ZM129.383 6.144C131.516 6.144 133.244 6.79467 134.567 8.096C135.89 9.376 136.551 11.232 136.551 13.664V24H133.671V14.08C133.671 12.3307 133.234 10.9973 132.359 10.08C131.484 9.14133 130.29 8.672 128.775 8.672C127.239 8.672 126.012 9.152 125.095 10.112C124.199 11.072 123.751 12.4693 123.751 14.304V24H120.839V6.464H123.751V8.96C124.327 8.064 125.106 7.37067 126.087 6.88C127.09 6.38933 128.188 6.144 129.383 6.144ZM140.22 15.168C140.22 13.376 140.582 11.808 141.308 10.464C142.033 9.09867 143.025 8.04267 144.284 7.296C145.564 6.54933 146.993 6.176 148.572 6.176C149.937 6.176 151.206 6.496 152.38 7.136C153.553 7.75467 154.449 8.576 155.068 9.6V0.32H158.012V24H155.068V20.704C154.492 21.7493 153.638 22.6133 152.508 23.296C151.377 23.9573 150.054 24.288 148.54 24.288C146.982 24.288 145.564 23.904 144.284 23.136C143.025 22.368 142.033 21.2907 141.308 19.904C140.582 18.5173 140.22 16.9387 140.22 15.168ZM155.068 15.2C155.068 13.8773 154.801 12.7253 154.268 11.744C153.734 10.7627 153.009 10.016 152.092 9.504C151.196 8.97067 150.204 8.704 149.116 8.704C148.028 8.704 147.036 8.96 146.14 9.472C145.244 9.984 144.529 10.7307 143.996 11.712C143.462 12.6933 143.196 13.8453 143.196 15.168C143.196 16.512 143.462 17.6853 143.996 18.688C144.529 19.6693 145.244 20.4267 146.14 20.96C147.036 21.472 148.028 21.728 149.116 21.728C150.204 21.728 151.196 21.472 152.092 20.96C153.009 20.4267 153.734 19.6693 154.268 18.688C154.801 17.6853 155.068 16.5227 155.068 15.2Z" fill="#343333"/>
</svg>
